<svg xmlns="http://www.w3.org/2000/svg" viewBox="0 0 64 64" role="img" aria-label="Meist klar">
  <g fill="none" stroke="#F4F7FF" stroke-width="3" stroke-linecap="round" stroke-linejoin="round">
    <circle cx="24" cy="24" r="9" fill="#F4F7FF" fill-opacity="0.18"/>
    <path d="M24 9v5M24 34v5M9 24h5M34 24h5M13.8 13.8l3.8 3.8M30.4 30.4l3.8 3.8M34.2 13.8l-3.8 3.8"/>
    <path d="M21 43c-5 0-9-3.7-9-8.2S15.8 26 21 26c1.5-5.4 6.2-9 11.8-9 6.8 0 12.2 5.3 12.2 11.8 4 0.7 7 4.1 7 8.2 0 4.7-4 8.5-8.9 8.5H21z" fill="#F4F7FF" fill-opacity="0.18"/>
  </g>
</svg>
