<svg xmlns="http://www.w3.org/2000/svg" viewBox="0 0 64 64" role="img" aria-label="Teilweise bewölkt">
  <g fill="none" stroke="#F4F7FF" stroke-width="3" stroke-linecap="round" stroke-linejoin="round">
    <circle cx="22" cy="23" r="8" fill="#F4F7FF" fill-opacity="0.18"/>
    <path d="M22 10v4M22 32v4M10 23h4M30 23h4M14 15l3 3M31 15l-3 3"/>
    <path d="M20 45c-4.8 0-8.7-3.5-8.7-7.9 0-4 3.1-7.2 7.1-7.8 1.7-5 6.4-8.3 11.8-8.3 6.8 0 12.2 5.1 12.5 11.6 4.5 0.2 8.1 3.8 8.1 8.3 0 4.6-3.9 8.1-8.7 8.1H20z" fill="#F4F7FF" fill-opacity="0.18"/>
  </g>
</svg>
