<svg xmlns="http://www.w3.org/2000/svg" viewBox="0 0 64 64" role="img" aria-label="Wetter">
  <g fill="none" stroke="#F4F7FF" stroke-width="3" stroke-linecap="round" stroke-linejoin="round">
    <path d="M18 40c-5.1 0-9.2-3.7-9.2-8.3 0-4.2 3.3-7.6 7.5-8 1.8-5.2 6.7-8.6 12.4-8.6 7.2 0 13.1 5.4 13.6 12.3 4.5.3 8 3.9 8 8.3 0 4.6-3.9 8.4-8.7 8.4H18z" fill="#F4F7FF" fill-opacity="0.18"/>
    <path d="M31 20c4.8 0 8.5 3.3 8.5 7.6 0 4.1-3 5.7-5.4 7.2-1.7 1.1-2.6 2-2.6 3.7"/>
    <circle cx="31" cy="45.5" r="1.5" fill="#F4F7FF"/>
  </g>
</svg>
